<?xml version="1.0" encoding="UTF-8" standalone="no"?>
<svg
   xmlns:dc="http://purl.org/dc/elements/1.1/"
   xmlns:cc="http://creativecommons.org/ns#"
   xmlns:rdf="http://www.w3.org/1999/02/22-rdf-syntax-ns#"
   xmlns:svg="http://www.w3.org/2000/svg"
   xmlns="http://www.w3.org/2000/svg"
   xmlns:sodipodi="http://sodipodi.sourceforge.net/DTD/sodipodi-0.dtd"
   xmlns:inkscape="http://www.inkscape.org/namespaces/inkscape"
   width="68.049088"
   height="44.999802"
   viewBox="0 0 18.004729 11.906196"
   version="1.1"
   id="svg835"
   sodipodi:docname="logo.svg"
   inkscape:version="0.92.3 (2405546, 2018-03-11)">
  <metadata
     id="metadata841">
    <rdf:RDF>
      <cc:Work
         rdf:about="">
        <dc:format>image/svg+xml</dc:format>
        <dc:type
           rdf:resource="http://purl.org/dc/dcmitype/StillImage" />
        <dc:title></dc:title>
      </cc:Work>
    </rdf:RDF>
  </metadata>
  <defs
     id="defs839" />
  <sodipodi:namedview
     pagecolor="#ffffff"
     bordercolor="#666666"
     borderopacity="1"
     objecttolerance="10"
     gridtolerance="10"
     guidetolerance="10"
     inkscape:pageopacity="0"
     inkscape:pageshadow="2"
     inkscape:window-width="1920"
     inkscape:window-height="1025"
     id="namedview837"
     showgrid="false"
     fit-margin-top="0"
     fit-margin-left="0"
     fit-margin-right="0"
     fit-margin-bottom="0"
     inkscape:zoom="2.8284271"
     inkscape:cx="152.00122"
     inkscape:cy="62.426568"
     inkscape:window-x="1920"
     inkscape:window-y="27"
     inkscape:window-maximized="1"
     inkscape:current-layer="svg835" />
  <path
     style="fill:#ffffff;fill-opacity:1;stroke:#f3f3f3;stroke-width:0.5291667;stroke-linecap:butt;stroke-linejoin:miter;stroke-miterlimit:4;stroke-dasharray:none;stroke-opacity:1"
     d="M 11.90601,0.26459684 V 11.112502 M 6.0850701,0.26459684 6.0849601,11.112502 M 1.3554305,0.26459684 h 4.7295796 5.8209999 4.73024 c 0.60432,0 1.09084,0.4716499 1.09084,1.05751986 v 8.7328753 c 0,0.58587 -0.48652,1.05751 -1.09084,1.05751 H 11.90601 6.0850101 1.3554305 c -0.6043198,0 -1.0908398,-0.47164 -1.0908398,-1.05751 V 1.3221167 c 0,-0.58586996 0.48652,-1.05751986 1.0908398,-1.05751986 z"
     id="path815"
     inkscape:connector-curvature="0" />
  <path
     d="M 7.4083401,7.1437767 H 10.58334 m 2.64584,-4.76253 h 3.175 m -8.9958399,1.58751 H 10.58334 M 7.4083401,2.3812467 H 10.58334 m -8.9958295,3.17502 h 3.1749996 m -3.1749996,-1.58751 h 3.1749996"
     style="fill:none;stroke:#e4e4e4;stroke-width:0.5291667;stroke-linecap:butt;stroke-linejoin:miter;stroke-miterlimit:4;stroke-dasharray:none;stroke-opacity:1"
     id="path817"
     inkscape:connector-curvature="0" />
  <g
     id="g867"
     transform="translate(115.09375,-289.3271)"
     style="stroke:#aeaeae;stroke-opacity:1">
    <path
       inkscape:connector-curvature="0"
       id="path863"
       d="m -103.18775,289.59165 v 11.37708 m -5.82094,-11.37708 -1.1e-4,11.37708 m -4.72953,-11.37708 h 4.72998 5.8209 4.729945 c 0.604324,0 1.090838,0.47165 1.090838,1.05752 v 9.26205 c 0,0.58587 -0.486514,1.05751 -1.090838,1.05751 h -4.729945 -5.82081 -4.73007 c -0.60432,0 -1.09084,-0.47164 -1.09084,-1.05751 v -9.26205 c 0,-0.58587 0.48652,-1.05752 1.09084,-1.05752 z"
       style="fill:none;fill-opacity:0.98522171;stroke:#d5d5d5;stroke-width:0.5291667;stroke-linecap:butt;stroke-linejoin:miter;stroke-miterlimit:4;stroke-dasharray:none;stroke-opacity:1" />
    <path
       style="fill:none;fill-opacity:0.98522171;stroke:#597290;stroke-width:0.5291667;stroke-linecap:butt;stroke-linejoin:miter;stroke-miterlimit:4;stroke-dasharray:none;stroke-opacity:1"
       d="m -113.73833,289.59165 h 4.72998 5.8209 4.729945 c 0.604324,0 1.090838,0.47165 1.090838,1.05752 v 9.26205 c 0,0.58587 -0.486514,1.05751 -1.090838,1.05751 h -4.729945 -5.82081 -4.73007 c -0.60432,0 -1.09084,-0.47164 -1.09084,-1.05751 v -9.26205 c 0,-0.58587 0.48652,-1.05752 1.09084,-1.05752 z"
       id="path865"
       inkscape:connector-curvature="0"
       sodipodi:nodetypes="sccssssccssss" />
  </g>
  <path
     d="m 0.2645867,1.5880767 v 1.58593 h 5.8208574 v -1.58593 z m 11.6514643,1.52148 -0.0195,1.58594 5.820858,0.0664 0.0195,-1.58594 z m -5.8306069,1.65235 v 1.58789 h 5.8208569 v -1.58789 z"
     style="color:#000000;font-style:normal;font-variant:normal;font-weight:normal;font-stretch:normal;font-size:medium;line-height:normal;font-family:sans-serif;font-variant-ligatures:normal;font-variant-position:normal;font-variant-caps:normal;font-variant-numeric:normal;font-variant-alternates:normal;font-feature-settings:normal;text-indent:0;text-align:start;text-decoration:none;text-decoration-line:none;text-decoration-style:solid;text-decoration-color:#000000;letter-spacing:normal;word-spacing:normal;text-transform:none;writing-mode:lr-tb;direction:ltr;text-orientation:mixed;dominant-baseline:auto;baseline-shift:baseline;text-anchor:start;white-space:normal;shape-padding:0;clip-rule:nonzero;display:inline;overflow:visible;visibility:visible;opacity:1;isolation:auto;mix-blend-mode:normal;color-interpolation:sRGB;color-interpolation-filters:linearRGB;solid-color:#000000;solid-opacity:1;vector-effect:none;fill:#2196f3;fill-opacity:1;fill-rule:nonzero;stroke:#1565c0;stroke-width:0.5291667;stroke-linecap:butt;stroke-linejoin:miter;stroke-miterlimit:4;stroke-dasharray:none;stroke-dashoffset:0;stroke-opacity:1;color-rendering:auto;image-rendering:auto;shape-rendering:auto;text-rendering:auto;enable-background:accumulate"
     id="path823"
     inkscape:connector-curvature="0" />
</svg>
